<?xml version="1.0" encoding="UTF-8" standalone="no"?>
<svg
   xmlns:dc="http://purl.org/dc/elements/1.1/"
   xmlns:cc="http://creativecommons.org/ns#"
   xmlns:rdf="http://www.w3.org/1999/02/22-rdf-syntax-ns#"
   xmlns:svg="http://www.w3.org/2000/svg"
   xmlns="http://www.w3.org/2000/svg"
   xmlns:sodipodi="http://sodipodi.sourceforge.net/DTD/sodipodi-0.dtd"
   xmlns:inkscape="http://www.inkscape.org/namespaces/inkscape"
   sodipodi:docname="huskyreivewlogonotext.svg"
   inkscape:version="1.0 (4035a4fb49, 2020-05-01)"
   id="svg879"
   version="1.1"
   viewBox="0 0 158.75 158.75001"
   height="600"
   width="600">
  <defs
     id="defs873" />
  <sodipodi:namedview
     inkscape:window-maximized="1"
     inkscape:window-y="-8"
     inkscape:window-x="-8"
     inkscape:window-height="1017"
     inkscape:window-width="1920"
     units="px"
     showgrid="false"
     inkscape:document-rotation="0"
     inkscape:current-layer="layer1"
     inkscape:document-units="px"
     inkscape:cy="251.74969"
     inkscape:cx="338.95924"
     inkscape:zoom="0.98994949"
     inkscape:pageshadow="2"
     inkscape:pageopacity="0.0"
     borderopacity="1.0"
     bordercolor="#666666"
     pagecolor="#ffffff"
     id="base" />
  <metadata
     id="metadata876">
    <rdf:RDF>
      <cc:Work
         rdf:about="">
        <dc:format>image/svg+xml</dc:format>
        <dc:type
           rdf:resource="http://purl.org/dc/dcmitype/StillImage" />
        <dc:title></dc:title>
      </cc:Work>
    </rdf:RDF>
  </metadata>
  <g
     id="layer1"
     inkscape:groupmode="layer"
     inkscape:label="Layer 1">
    <g
       id="g856"
       transform="translate(-167.51522,-61.596603)"
       style="fill:#000000;fill-opacity:1"
       inkscape:export-filename="D:\Academic\Spring 2022\CS 3141 TSP\project\CS3141-R01-team6\huskyreview\src\assets\huskylogoyellow.png"
       inkscape:export-xdpi="96"
       inkscape:export-ydpi="96">
      <path
         sodipodi:nodetypes="ccscsscsccsccscsssscscssccsccccssccscssscsscccsccsccscccccccsscccccccsccccccccccccsscaccccsccccccsccccccccccc"
         id="path848"
         d="m 209.13666,189.46056 -1.70089,-6.89806 c 0,0 3.20318,-6.52967 4.15774,-10.01637 1.30208,-4.75611 2.07886,-14.64658 2.07886,-14.64658 0,0 4.09759,-2.01811 5.57515,-3.68527 1.26132,-1.42316 2.43706,-3.20175 2.3843,-5.10267 -0.0141,-0.5077 -0.58891,-1.32292 -0.58891,-1.32292 0,0 -3.42451,5.37203 -5.95313,7.18155 -3.09695,2.21624 -10.67782,4.06324 -10.67782,4.06324 l 1.03943,-1.70089 c 0,0 -5.35766,0.91578 -8.03199,0.66146 -1.98564,-0.18883 -5.76414,-1.6064 -5.76414,-1.6064 l 3.02381,-0.66146 c 0,0 -4.29685,-2.17167 -6.04762,-3.77976 -1.97179,-1.81111 -4.81919,-6.4256 -4.81919,-6.4256 0,0 11.60354,3.0241 16.81993,0.94494 15.3378,-6.11336 14.51958,-16.72866 20.12724,-22.96205 2.15513,-2.39562 4.90731,-4.18209 7.46503,-6.14211 2.886,-2.21158 5.5896,-4.78926 8.88244,-6.3311 5.95724,-2.78941 19.0878,-5.00819 19.0878,-5.00819 0,0 4.85579,-4.28603 7.55952,-6.04762 2.85654,-1.861156 9.07143,-4.724701 9.07143,-4.724701 0,0 3.2627,-1.956622 4.44122,-3.401785 1.41559,-1.735879 1.65289,-4.206991 2.92932,-6.047621 1.06644,-1.537825 3.87425,-4.063243 3.87425,-4.063243 l -0.66146,-0.566965 c 0,0 1.53298,-1.023157 2.36236,-1.41741 0.7109,-0.337933 2.22061,-0.803198 2.22061,-0.803198 l -1.08668,-0.708706 c 1.84985,-1.500886 4.588,-2.250298 6.76206,-3.106839 1.15942,-0.447757 3.58503,-0.767417 3.58503,-0.767417 0,0 1.74712,-2.624894 2.92932,-3.638021 0.88404,-0.757609 2.24062,-1.945043 3.35454,-1.606398 0.92322,0.28067 0.0135,2.671699 0.91153,3.024791 1.20582,0.02167 2.81026,-2.164543 3.71868,-1.607381 0.92094,0.62612 0.37748,2.141952 0.56696,3.212797 0.17279,0.976518 0.51972,2.929316 0.51972,2.929316 0,0 3.39865,1.891341 4.44122,3.449032 0.79058,1.181187 1.01336,3.726829 1.79539,4.913691 1.66453,2.5262 4.08777,2.9463 6.42559,4.866444 0.81185,0.666808 2.4096,2.031621 2.4096,2.031621 0,0 -0.6946,2.71355 -1.65365,3.638021 -0.8949,0.862635 -3.2249,1.163364 -3.54352,1.700892 -0.25041,0.42245 0.42522,1.511906 0.42522,1.511906 0,0 -0.0568,1.286664 -4.11049,1.889884 -2.29183,0.0847 -3.82713,-1.595954 -5.25302,-0.52783 -0.61733,0.50927 -0.59193,1.52305 -0.60561,2.32321 -0.0135,0.79079 0.51971,2.31511 0.51971,2.31511 l -1.6064,0.66146 c 0,0 0.58283,0.74256 0.94495,1.03943 0.21305,0.17466 0.7087,0.42522 0.7087,0.42522 l -1.93713,0.8032 c 0,0 0.23054,1.36477 0.51972,1.98438 0.25319,0.54249 1.03943,1.46466 1.03943,1.46466 l -1.93712,0.0472 -0.0473,1.37017 -1.18118,-0.0472 c -0.61038,2.79203 -2.28962,5.00875 -3.79357,7.38599 -0.85239,1.31697 -2.4675,4.50177 -2.4675,4.50177 l -0.48057,1.41799 c 0,0 -0.35058,1.50947 -0.56083,2.05317 0,0 -0.86784,4.43964 -1.54155,5.96491 -2.53375,5.73645 -5.43178,9.59068 -5.43178,9.59068 l -0.80181,8.88671 0.53454,7.55036 1.00226,2.33861 -6.34765,1.93771 -0.61896,-2.25559 -0.71739,-1.553 c 0,0 -0.18142,-14.42482 -0.80181,-17.10526 -0.20889,-0.90252 -1.17503,-2.85022 -1.17503,-2.85022 l -4.27058,1.11297 -0.30068,7.31651 -0.64051,-1.34683 -0.2062,6.92984 -0.52307,-1.34011 0.16704,8.61944 2.20497,4.87767 -7.34991,2.2718 -1.31145,-3.11275 -0.92693,-2.0322 -0.3675,-21.38156 c 0,0 -4.04123,-0.24671 -6.01356,-0.66817 -1.21231,-0.25906 -2.31654,-0.94428 -3.54132,-1.1359 -0.96821,-0.15148 -2.93997,0 -2.93997,0 0,0 -1.61154,8.98892 -3.0736,13.29666 -0.96743,2.85038 -3.74177,8.21854 -3.74177,8.21854 l -0.80181,-0.80181 -3.67495,3.54132 v -1.67043 c 0,0 -1.98497,2.28982 -3.07361,3.34087 -0.88636,0.85575 -2.80633,2.40542 -2.80633,2.40542 l -0.0668,9.55489 -5.21176,4.94448 -1.46998,-1.60361 -0.26727,-10.28988 -1.5368,-1.60362 c 0,0 2.14391,-3.82921 2.7152,-5.91571 0.60019,-2.19209 0.62567,-6.57914 0.62567,-6.57914 l -3.94223,3.40769 -0.8018,-1.06908 -4.07587,3.20724 -0.20045,-1.06908 -2.33861,1.60361 -4.81085,9.82216 -2.73951,5.34539 -0.60136,6.34765 1.06908,2.40543 z"
         style="fill:#000000;fill-opacity:1;fill-rule:evenodd;stroke:none;stroke-width:0.264583px;stroke-linecap:butt;stroke-linejoin:miter;stroke-opacity:1" />
      <path
         sodipodi:nodetypes="cccccccccccc"
         id="path851"
         d="m 169.44888,212.88018 22.71791,-20.04521 104.36875,-32.00553 9.22079,8.88671 8.01809,14.43255 -43.47735,13.297 12.14944,-1.95751 31.61139,-9.2634 8.00187,3.93748 2.27179,7.48354 -5.7463,15.23437 z"
         style="fill:#000000;fill-opacity:1;fill-rule:evenodd;stroke:none;stroke-width:0.264583px;stroke-linecap:butt;stroke-linejoin:miter;stroke-opacity:1" />
    </g>
  </g>
</svg>
